<?xml version="1.0" standalone="no"?>
<!DOCTYPE svg PUBLIC "-//W3C//DTD SVG 20010904//EN"
 "http://www.w3.org/TR/2001/REC-SVG-20010904/DTD/svg10.dtd">
<svg version="1.0" xmlns="http://www.w3.org/2000/svg"
 width="840.000000pt" height="382.000000pt" viewBox="0 0 840.000000 382.000000"
 preserveAspectRatio="xMidYMid meet">

<g transform="translate(0.000000,382.000000) scale(0.100000,-0.100000)"
fill="#000000" stroke="none">
<path d="M3335 3396 c-247 -49 -401 -187 -461 -411 -40 -150 -26 -362 32 -493
l25 -57 -20 -35 c-85 -153 -103 -454 -37 -636 l25 -67 -29 -36 c-15 -20 -31
-48 -34 -63 -4 -16 -11 -28 -16 -28 -22 0 -90 -74 -105 -115 -14 -35 -16 -71
-13 -191 3 -136 5 -152 27 -187 41 -66 82 -85 242 -113 386 -66 608 -154 924
-364 94 -62 197 -126 231 -142 145 -68 320 -75 482 -18 79 28 143 69 289 186
212 170 352 242 563 286 119 25 171 54 207 116 27 46 28 51 28 202 0 168 -5
187 -65 257 -16 17 -31 45 -34 60 -10 42 -60 99 -106 119 l-40 18 0 756 0 757
-23 44 c-16 29 -40 54 -72 74 l-48 30 -198 3 c-224 4 -256 -3 -320 -71 l-33
-35 -40 42 c-58 59 -92 66 -307 66 -234 0 -254 -8 -345 -135 l-22 -29 -66 61
c-72 68 -158 114 -257 138 -90 22 -296 28 -384 11z m390 -227 c82 -32 163
-113 195 -194 21 -52 24 -77 24 -195 1 -120 -2 -141 -22 -185 -27 -60 -73
-110 -124 -136 -21 -11 -38 -21 -38 -23 0 -2 22 -17 49 -33 56 -36 102 -97
128 -174 26 -77 26 -310 0 -389 -36 -107 -103 -177 -214 -221 -52 -21 -74 -24
-223 -24 -148 0 -171 3 -221 23 -112 45 -179 114 -216 223 -25 75 -26 309 0
391 22 71 69 134 129 173 26 17 47 32 47 35 1 3 -20 16 -46 30 -94 50 -133
141 -133 311 0 185 54 300 171 363 84 46 137 56 294 52 119 -2 149 -6 200 -27z
m845 -699 l0 -671 -52 8 c-79 12 -268 9 -306 -4 -26 -10 -34 -10 -38 1 -3 7
-4 191 -2 409 l3 397 -50 -7 c-27 -4 -61 -7 -75 -7 l-25 -1 -3 166 -2 165 32
16 c53 25 135 95 175 148 l37 50 153 0 153 0 0 -670z m680 -100 l0 -770 -200
0 -200 0 0 -91 c0 -181 -48 -406 -116 -544 -66 -134 -177 -244 -308 -304 -48
-22 -50 -22 -93 -6 -197 76 -350 287 -407 565 -17 85 -36 258 -36 331 l0 49
145 0 145 0 0 50 c0 46 3 52 28 62 33 14 284 15 327 1 28 -9 30 -13 31 -59 l0
-49 145 0 144 0 2 503 2 503 -57 -7 c-31 -4 -68 -8 -82 -8 l-25 -1 -3 166 -2
166 31 13 c54 23 146 97 186 150 l37 50 153 0 153 0 0 -770z m-1650 -933 c25
-4 39 -17 34 -30 -2 -7 6 -19 20 -26 38 -21 71 -71 59 -91 -8 -11 -7 -21 3
-35 8 -10 14 -15 14 -11 0 5 8 2 18 -5 14 -11 15 -11 5 1 -7 8 -13 18 -13 24
0 5 9 -1 20 -14 11 -13 20 -28 20 -33 0 -6 6 -18 14 -26 7 -9 16 -29 20 -46
l6 -30 -20 24 c-11 13 -20 20 -20 17 0 -4 -5 -4 -10 -1 -7 4 -7 13 0 26 7 13
7 19 0 19 -5 0 -10 -5 -10 -12 0 -6 -3 -8 -6 -5 -4 4 -1 13 6 22 8 9 8 15 2
15 -6 0 -14 -4 -17 -10 -9 -15 -20 -12 -49 15 -14 13 -26 33 -26 45 0 11 -5
20 -11 20 -6 0 -8 -9 -4 -20 6 -20 6 -20 -32 1 -21 12 -50 29 -65 36 -16 8
-28 19 -28 24 0 6 -5 7 -12 3 -8 -5 -9 -2 -5 10 6 14 3 15 -13 6 -16 -9 -22
-8 -26 5 -3 8 -10 12 -15 10 -4 -3 -28 4 -51 17 -24 12 -47 23 -53 24 -5 0
-23 6 -38 12 -16 7 -34 12 -40 12 -7 0 -6 4 3 10 12 8 271 5 320 -3z m1681 -8
c-16 -10 -30 -13 -38 -7 -7 6 -14 5 -19 -3 -4 -8 -3 -9 4 -5 24 15 11 -2 -14
-19 -18 -11 -24 -13 -19 -4 8 13 -5 3 -64 -49 -22 -20 -48 -21 -36 -2 13 21
-14 17 -34 -4 -15 -15 -19 -26 -12 -31 16 -9 14 -19 -8 -32 -17 -10 -18 -9
-14 10 4 20 3 20 -7 4 -6 -10 -9 -25 -6 -32 3 -8 2 -14 -2 -13 -16 3 -40 -15
-36 -27 3 -7 1 -16 -5 -20 -6 -3 -9 0 -5 8 3 8 -2 14 -11 14 -12 0 -15 -7 -12
-24 2 -12 0 -23 -4 -23 -5 0 -9 -7 -9 -15 0 -8 -4 -15 -10 -15 -5 0 -10 7 -10
15 0 8 5 15 10 15 6 0 10 14 10 30 0 17 6 33 14 36 8 3 12 12 10 19 -3 7 -1
16 5 20 6 3 11 15 11 26 0 11 4 18 9 15 5 -3 11 9 15 26 6 30 7 31 22 12 8
-10 13 -14 10 -7 -4 6 0 13 6 16 10 3 10 9 0 27 -11 18 -11 25 2 39 12 13 36
16 144 16 123 0 128 -1 103 -16z m-201 -119 c-20 -12 -33 -1 -19 16 9 11 15
12 23 4 8 -8 7 -13 -4 -20z m-1347 -30 c-3 -11 -9 -17 -15 -14 -5 3 -4 12 3
20 16 19 18 18 12 -6z"/>
<path d="M3428 2933 c-36 -39 -48 -84 -48 -177 1 -130 44 -198 125 -198 84 0
119 60 119 202 0 79 -3 102 -22 137 -27 51 -47 63 -104 63 -35 0 -49 -6 -70
-27z"/>
<path d="M3443 2294 c-50 -25 -74 -86 -80 -202 -10 -175 29 -251 132 -260 51
-4 56 -3 89 30 25 25 37 48 46 93 15 72 8 217 -13 266 -32 75 -108 107 -174
73z"/>
<path d="M3417 1416 c-2 -6 -2 -17 1 -24 3 -10 8 -8 19 7 11 17 17 18 27 8 8
-6 12 -15 9 -19 -6 -11 9 -10 27 2 13 8 12 10 -2 10 -10 0 -18 6 -18 14 0 17
-57 19 -63 2z"/>
<path d="M3520 1420 c0 -6 4 -9 9 -6 5 4 12 0 14 -6 4 -10 6 -10 6 0 1 6 12
12 25 12 27 0 43 -16 24 -23 -7 -2 -10 -7 -7 -11 8 -9 41 23 35 33 -8 12 -106
13 -106 1z"/>
<path d="M3613 1367 c-3 -7 -3 -9 2 -5 5 5 14 -1 22 -12 8 -11 20 -20 26 -20
7 0 4 5 -5 11 -10 5 -18 15 -18 21 0 9 3 9 12 0 7 -7 17 -12 23 -12 12 1 -25
23 -42 26 -7 1 -16 -3 -20 -9z"/>
<path d="M3600 1341 c-8 -6 -17 -8 -21 -5 -4 2 -10 0 -14 -5 -3 -6 5 -15 17
-22 13 -6 20 -8 15 -4 -4 5 0 17 10 27 18 20 16 23 -7 9z"/>
<path d="M3683 1333 c4 -3 1 -13 -6 -22 -11 -14 -10 -14 5 -2 16 12 16 31 1
31 -4 0 -3 -3 0 -7z"/>
<path d="M3687 1249 c7 -7 15 -10 18 -7 3 3 -2 9 -12 12 -14 6 -15 5 -6 -5z"/>
<path d="M3775 1170 c-3 -6 1 -7 9 -4 18 7 21 14 7 14 -6 0 -13 -4 -16 -10z"/>
<path d="M5058 1423 c7 -3 16 -2 19 1 4 3 -2 6 -13 5 -11 0 -14 -3 -6 -6z"/>
<path d="M5106 1421 c-4 -5 -2 -12 3 -15 5 -4 12 -2 15 3 4 5 2 12 -3 15 -5 4
-12 2 -15 -3z"/>
<path d="M5133 1396 c-6 -8 -9 -17 -6 -20 12 -11 19 -6 20 14 2 23 2 23 -14 6z"/>
<path d="M4995 1300 c-3 -5 -1 -10 4 -10 6 0 11 5 11 10 0 6 -2 10 -4 10 -3 0
-8 -4 -11 -10z"/>
<path d="M4965 1269 c-4 -6 -4 -13 -1 -16 3 -3 0 -13 -6 -22 -11 -13 5 -3 42
28 3 2 -3 1 -12 -2 -10 -4 -18 -2 -18 3 0 5 8 11 18 13 15 4 15 5 0 6 -9 0
-20 -4 -23 -10z"/>
<path d="M5543 1845 c-47 -33 -36 -116 18 -139 40 -17 75 -10 99 22 43 54 9
132 -59 132 -20 0 -46 -7 -58 -15z m98 -13 c47 -39 16 -122 -45 -122 -33 0
-66 36 -66 70 0 60 64 89 111 52z"/>
<path d="M5560 1780 c0 -52 13 -67 24 -27 l6 22 20 -25 21 -25 -3 25 c-1 14 1
31 6 38 12 19 -12 42 -45 42 -28 0 -29 -2 -29 -50z m50 22 c0 -13 -12 -22 -22
-16 -10 6 -1 24 13 24 5 0 9 -4 9 -8z"/>
</g>
</svg>
